<svg width="32" height="32" viewBox="0 0 32 32" fill="none" xmlns="http://www.w3.org/2000/svg">
<path d="M28 29.0909C28 29.8624 27.719 30.6024 27.219 31.1479C26.7189 31.6935 26.0406 32 25.3333 32H6.66667C5.95942 32 5.28115 31.6935 4.78105 31.1479C4.28095 30.6024 4 29.8624 4 29.0909V2.90909C4 2.13755 4.28095 1.39761 4.78105 0.852053C5.28115 0.306493 5.95942 0 6.66667 0L20 0L28 8V29.0909Z" fill="#E0E0E0"/>
<path d="M20 0L28 8H22.1818C21.6032 8 21.0482 7.78929 20.639 7.41421C20.2299 7.03914 20 6.53043 20 6V0Z" fill="#B6B6B6"/>
<path d="M10.0312 11H18.9688C19.6563 11 20 11.3333 20 12C20 12.6667 19.6563 13 18.9688 13H10.0312C9.34375 13 9 12.6667 9 12C9 11.3333 9.34375 11 10.0312 11Z" fill="white"/>
<path d="M9.95454 17H22.0455C22.6818 17 23 17.3333 23 18C23 18.6667 22.6818 19 22.0455 19H9.95454C9.31818 19 9 18.6667 9 18C9 17.3333 9.31818 17 9.95454 17Z" fill="white"/>
<path d="M9.95454 23H22.0455C22.6818 23 23 23.3333 23 24C23 24.6667 22.6818 25 22.0455 25H9.95454C9.31818 25 9 24.6667 9 24C9 23.3333 9.31818 23 9.95454 23V23Z" fill="white"/>
</svg>
