<svg width="32" height="32" viewBox="0 0 32 32" fill="none" xmlns="http://www.w3.org/2000/svg">
<rect x="4" width="24" height="32" rx="3" fill="#B9ADFF"/>
<path d="M17.7371 15.3946C17.6308 15.2894 17.5175 15.1914 17.398 15.1014C17.2733 14.9836 17.1084 14.9177 16.9368 14.9172C16.7653 14.9167 16.6 14.9816 16.4746 15.0986C16.3492 15.2157 16.2732 15.3761 16.2619 15.5473C16.2507 15.7185 16.3051 15.8875 16.414 16.0199H16.4133C16.4606 16.0764 16.5168 16.1247 16.5797 16.1631C16.6435 16.2159 16.7057 16.2673 16.7641 16.3264L16.8193 16.3808C17.5185 17.0793 17.3093 18.2817 16.6108 18.9809L13.628 21.9628C13.2915 22.2981 12.8359 22.4863 12.361 22.4863C11.886 22.4863 11.4304 22.2981 11.0939 21.9628L11.0379 21.9061C10.7022 21.57 10.5136 21.1145 10.5136 20.6395C10.5136 20.1645 10.7022 19.7089 11.0379 19.3729L12.3555 18.0561C12.4379 18.0012 12.5082 17.9301 12.5623 17.8472C12.6165 17.7644 12.6532 17.6714 12.6704 17.5739C12.6876 17.4764 12.6848 17.3765 12.6623 17.2801C12.6398 17.1837 12.598 17.0928 12.5394 17.0131C12.4808 16.9333 12.4066 16.8662 12.3214 16.8159C12.2362 16.7655 12.1416 16.733 12.0435 16.7202C11.9453 16.7074 11.8456 16.7146 11.7503 16.7415C11.655 16.7683 11.5661 16.8141 11.4891 16.8763L11.4883 16.8739L11.4743 16.8872C11.4221 16.9244 11.3751 16.9684 11.3343 17.0178L9.96537 18.2988C9.34706 18.9207 9 19.7621 9 20.6391C9 21.5161 9.34706 22.3574 9.96537 22.9794L10.0214 23.0354C10.6434 23.6532 11.4846 24 12.3614 24C13.2381 24 14.0793 23.6532 14.7013 23.0354L17.6826 20.0526C18.9683 18.7655 19.0772 16.7355 17.7915 15.4491L17.7371 15.3946V15.3946ZM22.0352 11.0213L21.9792 10.9653C21.3573 10.347 20.5161 10 19.6392 10C18.7623 10 17.921 10.347 17.2992 10.9653L14.3179 13.948C13.0306 15.2352 12.9599 17.0933 14.2471 18.3812L14.3016 18.4357C14.3599 18.494 14.4206 18.5492 14.4828 18.6013C14.5271 18.6519 14.58 18.6947 14.6383 18.7289H14.6399C14.7579 18.7965 14.8944 18.8245 15.0295 18.809C15.1645 18.7934 15.2911 18.735 15.3906 18.6424C15.4901 18.5497 15.5574 18.4277 15.5826 18.2941C15.6077 18.1605 15.5895 18.0223 15.5305 17.8998C15.4465 17.7116 15.2886 17.5965 15.1797 17.4876L15.1252 17.4331C14.426 16.7347 14.6912 15.719 15.3897 15.0205L18.3733 12.0386C18.7093 11.7028 19.1649 11.5142 19.6399 11.5142C20.115 11.5142 20.5706 11.7028 20.9066 12.0386L20.9618 12.093C21.2977 12.4294 21.4864 12.8854 21.4864 13.3608C21.4864 13.8362 21.2977 14.2921 20.9618 14.6285L19.6489 15.9429C19.5258 16.0337 19.4345 16.161 19.3881 16.3067C19.3416 16.4523 19.3424 16.609 19.3903 16.7542C19.4381 16.8994 19.5306 17.0258 19.6546 17.1153C19.7786 17.2049 19.9277 17.2529 20.0806 17.2527C20.2151 17.2531 20.3471 17.2159 20.4617 17.1454L20.464 17.1493L20.4842 17.1306C20.547 17.0886 20.6029 17.0372 20.6499 16.9782L22.0344 15.7011C22.6528 15.0793 23 14.2381 23 13.3612C23 12.4842 22.6528 11.643 22.0344 11.0213H22.0352Z" fill="white"/>
</svg>
