<svg width="32" height="32" viewBox="0 0 32 32" fill="none" xmlns="http://www.w3.org/2000/svg">
<rect x="4" width="24" height="32" rx="3" fill="#E0E0E0"/>
<path d="M19.9091 9.16014C20.1125 9.37382 20.1153 9.70868 19.9153 9.92571L19.9091 9.93226L18.7241 11.1598H20.9255C22.0925 11.1818 23.0207 12.1453 22.9996 13.3123V20.8471C23.021 22.0143 22.0927 22.978 20.9255 23H11.0745C9.90732 22.978 8.97898 22.0142 9.00036 20.8471V13.3124C8.97898 12.1452 9.90732 11.1815 11.0745 11.1595H13.2793L12.0946 9.93197C11.8891 9.71581 11.8891 9.37644 12.0946 9.16028C12.2906 8.95489 12.6161 8.94732 12.8214 9.14326C12.827 9.14879 12.8329 9.15446 12.8384 9.16028L14.7685 11.1597H17.2332L19.1635 9.16028C19.3589 8.9543 19.6843 8.94572 19.8902 9.14108C19.8966 9.14734 19.9029 9.15359 19.9091 9.16014Z" fill="white"/>
<path d="M14.9619 15.0912L17.5187 16.6605C17.8259 16.849 17.9312 17.2669 17.7542 17.5939C17.697 17.6995 17.6144 17.7872 17.5146 17.8474L14.9578 19.3911C14.6496 19.5773 14.2582 19.4618 14.0835 19.1335C14.0285 19.0296 13.9998 18.9137 14 18.7962V15.6835C14 15.3059 14.2874 15 14.6416 15C14.7542 15 14.8646 15.0314 14.9619 15.0912Z" fill="#E0E0E0"/>
</svg>
