<svg width="32" height="32" viewBox="0 0 32 32" fill="none" xmlns="http://www.w3.org/2000/svg">
<path d="M28 8V28.7107C27.9907 29.8027 27.8667 30.2173 27.644 30.636C27.412 31.0707 27.0707 31.412 26.636 31.644L26.588 31.6693C26.176 31.8813 25.7427 31.996 24.6467 32H7.41867C6.22933 32 5.79867 31.876 5.36533 31.644C4.93535 31.4169 4.58366 31.0657 4.356 30.636L4.32933 30.5867C4.12 30.176 4.00533 29.7427 4 28.6467V3.41867C4 2.22933 4.124 1.79867 4.356 1.36533C4.588 0.929333 4.92933 0.588 5.364 0.356L5.41333 0.329333C5.824 0.12 6.25733 0.00533334 7.35333 0H20L28 8Z" fill="#B9ADFF"/>
<path d="M20 0L28 8H22.2227C21.4493 8 21.1693 7.92 20.8867 7.768C20.6078 7.62031 20.3797 7.39223 20.232 7.11333L20.2093 7.07067C20.072 6.80133 20 6.512 20 5.77733V0Z" fill="#A093E9"/>
<path d="M16.3862 11.6847C16.3868 11.6059 16.4004 11.5278 16.4266 11.4537L16.4401 11.4219C16.4496 11.3967 16.4609 11.3722 16.4737 11.3486L16.4926 11.3182C16.5068 11.295 16.5225 11.2728 16.5397 11.2518L16.5586 11.2297C16.6106 11.1681 16.6737 11.1174 16.7444 11.0803C16.8005 11.0501 16.8603 11.0278 16.9221 11.0139L16.9491 11.0098C16.9789 11.0042 17.009 11.001 17.0393 11.0001H17.0595C17.0906 10.9995 17.1216 11.0014 17.1524 11.0056L17.0595 11.0001C17.1463 11.0004 17.2322 11.0177 17.3126 11.0513L17.2453 11.0264L17.3086 11.0485L17.3369 11.0623C17.3599 11.0726 17.3824 11.0842 17.4042 11.0969C17.9859 11.3777 18.5326 12.0484 18.9608 12.4177C19.4106 12.8063 19.6678 12.9708 19.9303 13.0621C20.3397 13.2032 21.0291 13.2032 22 13.0621C21.9246 13.578 21.763 13.9956 21.5152 14.3151C21.1422 14.7936 20.4138 15.4422 19.5048 15.4422C18.9824 15.4422 18.6201 15.3177 18.2189 15.0494C18.2162 15.0494 17.9092 14.8351 17.8203 14.7798L17.7799 14.7549C17.7647 14.7459 17.7495 14.7372 17.7341 14.7286L17.7328 21.3724C17.6412 22.8355 16.1694 24 14.3664 24C12.5081 24 11 22.7622 11 21.2341C11 19.7059 12.5081 18.4681 14.3664 18.4681C15.1245 18.4681 15.8247 18.6756 16.3876 19.0213L16.3862 11.6847Z" fill="white"/>
</svg>
