<svg width="32" height="32" viewBox="0 0 32 32" fill="none" xmlns="http://www.w3.org/2000/svg">
<path d="M28 29.0909C28 29.8624 27.719 30.6024 27.219 31.1479C26.7189 31.6935 26.0406 32 25.3333 32H6.66667C5.95942 32 5.28115 31.6935 4.78105 31.1479C4.28095 30.6024 4 29.8624 4 29.0909V2.90909C4 2.13755 4.28095 1.39761 4.78105 0.852053C5.28115 0.306493 5.95942 0 6.66667 0L20 0L28 8V29.0909Z" fill="#B9ADFF"/>
<path d="M20 0L28 8H22.1818C21.6032 8 21.0482 7.78929 20.639 7.41421C20.2299 7.03914 20 6.53043 20 6V0Z" fill="#A093E9"/>
<rect x="8.5" y="11.5" width="15" height="15" rx="2.5" fill="white" stroke="white"/>
<path d="M11 15.5C11 15.8978 11.158 16.2794 11.4393 16.5607C11.7206 16.842 12.1022 17 12.5 17C12.8978 17 13.2794 16.842 13.5607 16.5607C13.842 16.2794 14 15.8978 14 15.5C14 15.1022 13.842 14.7206 13.5607 14.4393C13.2794 14.158 12.8978 14 12.5 14C12.1022 14 11.7206 14.158 11.4393 14.4393C11.158 14.7206 11 15.1022 11 15.5Z" fill="#B9ADFF"/>
<path d="M13.4601 19.6062C13.5675 19.673 13.6615 19.7552 13.738 19.8496L16.0043 22.655L12.8832 26.1577H10.8926C9.78729 26.1577 8.89153 25.2611 8.89265 24.1557L8.89318 23.6314V23.5033L11.8458 19.8496C11.9335 19.741 12.0448 19.6485 12.1734 19.5775C12.302 19.5065 12.4453 19.4583 12.5952 19.4356C12.7452 19.413 12.8987 19.4165 13.0471 19.4457C13.1955 19.475 13.3358 19.5295 13.4601 19.6062Z" fill="#B9ADFF"/>
<path d="M21.7252 16.2756C21.7952 16.3283 21.8586 16.39 21.9135 16.4581L23.112 17.9551V23.7122C23.1148 23.7122 23.1161 23.8974 23.1165 24.166C23.118 25.2672 22.2215 26.158 21.1203 26.158C20.931 26.158 20.7525 26.158 20.598 26.158H12.4453L20.2109 16.4574C20.298 16.3487 20.4062 16.2577 20.5294 16.1896C20.6526 16.1215 20.7884 16.0778 20.929 16.0608C21.0697 16.0437 21.2124 16.0539 21.349 16.0905C21.4856 16.1271 21.6134 16.1896 21.7252 16.2743V16.2756Z" fill="#B9ADFF"/>
</svg>
