<svg width="32" height="32" viewBox="0 0 32 32" fill="none" xmlns="http://www.w3.org/2000/svg">
<path d="M28 29.0909C28 29.8624 27.719 30.6024 27.219 31.1479C26.7189 31.6935 26.0406 32 25.3333 32H6.66667C5.95942 32 5.28115 31.6935 4.78105 31.1479C4.28095 30.6024 4 29.8624 4 29.0909V2.90909C4 2.13755 4.28095 1.39761 4.78105 0.852053C5.28115 0.306493 5.95942 0 6.66667 0L20 0L28 8V29.0909Z" fill="#E0E0E0"/>
<path d="M20 0L28 8H22.1818C21.6032 8 21.0482 7.78929 20.639 7.41421C20.2299 7.03914 20 6.53043 20 6V0Z" fill="#B6B6B6"/>
<path d="M20.16 21.2C20.16 21.7092 19.9577 22.1976 19.5977 22.5576C19.2376 22.9177 18.7492 23.12 18.24 23.12H10.56C10.0508 23.12 9.56244 22.9177 9.20237 22.5576C8.8423 22.1976 8.64001 21.7092 8.64001 21.2V14.8C8.64001 14.2908 8.8423 13.8024 9.20237 13.4424C9.56244 13.0823 10.0508 12.88 10.56 12.88H18.24C18.7492 12.88 19.2376 13.0823 19.5977 13.4424C19.9577 13.8024 20.16 14.2908 20.16 14.8V16.08L22.4339 14.943C22.5315 14.8943 22.64 14.8713 22.749 14.8762C22.858 14.8811 22.9639 14.9139 23.0567 14.9712C23.1495 15.0286 23.226 15.1088 23.2791 15.2041C23.3322 15.2994 23.3601 15.4067 23.36 15.5158V20.4845C23.36 20.5936 23.3321 20.7008 23.279 20.7961C23.2259 20.8914 23.1493 20.9715 23.0565 21.0288C22.9638 21.0862 22.8579 21.1189 22.7489 21.1238C22.6399 21.1287 22.5315 21.1057 22.4339 21.057L20.16 19.92V21.2Z" fill="white"/>
<path d="M13.4419 15.8512L15.9987 17.4205C16.3059 17.609 16.4112 18.0269 16.2342 18.3539C16.1769 18.4595 16.0944 18.5472 15.9945 18.6074L13.4377 20.1511C13.1296 20.3373 12.7382 20.2218 12.5635 19.8935C12.5085 19.7896 12.4798 19.6737 12.48 19.5562V16.4435C12.48 16.0659 12.7673 15.76 13.1216 15.76C13.2342 15.76 13.3446 15.7914 13.4419 15.8512Z" fill="#E0E0E0"/>
</svg>
