<svg width="32" height="32" viewBox="0 0 32 32" fill="none" xmlns="http://www.w3.org/2000/svg">
<rect x="4" width="24" height="32" rx="3" fill="#B9ADFF"/>
<path d="M22.4215 11.7458C22.6279 11.7458 22.826 11.8278 22.972 11.9738C23.1179 12.1198 23.2 12.3178 23.2 12.5243C23.2 12.7308 23.1179 12.9288 22.972 13.0748C22.826 13.2208 22.6279 13.3028 22.4215 13.3028H22.0624V20.573C22.0624 21.2858 21.4846 21.8636 20.7718 21.8636H19.735L20.707 22.8734C20.8486 23.0221 20.9271 23.2199 20.9261 23.4253C20.9251 23.6306 20.8446 23.8276 20.7016 23.975C20.632 24.047 20.5485 24.1041 20.4563 24.1429C20.364 24.1817 20.2648 24.2014 20.1647 24.2008C20.0646 24.2002 19.9657 24.1793 19.8739 24.1394C19.7821 24.0996 19.6993 24.0415 19.6306 23.9687L17.602 21.8636H14.4187L12.3667 23.9714C12.2974 24.0435 12.2142 24.1009 12.1222 24.1401C12.0302 24.1793 11.9312 24.1995 11.8312 24.1995C11.7311 24.1995 11.6322 24.1793 11.5401 24.1401C11.4481 24.1009 11.365 24.0435 11.2957 23.9714C11.1532 23.8236 11.0736 23.6263 11.0736 23.421C11.0736 23.2158 11.1532 23.0185 11.2957 22.8707L12.2758 21.8636H11.2282C10.8859 21.8636 10.5576 21.7276 10.3156 21.4856C10.0735 21.2435 9.93757 20.9153 9.93757 20.573V13.3028H9.57757C9.3711 13.3028 9.17309 13.2208 9.02709 13.0748C8.88109 12.9288 8.79907 12.7308 8.79907 12.5243C8.79907 12.3178 8.88109 12.1198 9.02709 11.9738C9.17309 11.8278 9.3711 11.7458 9.57757 11.7458H22.4215ZM19.3939 14.912C19.3377 14.8623 19.2721 14.8244 19.2009 14.8007C19.1298 14.7769 19.0546 14.7677 18.9798 14.7737C18.905 14.7797 18.8322 14.8006 18.7657 14.8354C18.6993 14.8701 18.6405 14.9179 18.5929 14.9759L16.8051 17.3456L15.208 16.0676C15.15 16.02 15.0831 15.9845 15.0112 15.9634C14.9393 15.9422 14.8638 15.9357 14.7894 15.9442C14.7149 15.9528 14.6429 15.9762 14.5776 16.0132C14.5124 16.0502 14.4553 16.0999 14.4097 16.1594L12.895 18.107C12.8011 18.2288 12.758 18.3822 12.7748 18.5351C12.7916 18.6879 12.8669 18.8284 12.985 18.9269C13.0433 18.9741 13.1105 19.0092 13.1826 19.0301C13.2546 19.0511 13.3302 19.0575 13.4047 19.0489C13.4793 19.0404 13.5514 19.0171 13.6169 18.9804C13.6823 18.9436 13.7398 18.8943 13.786 18.8351L14.9461 17.3456L16.396 18.5372C16.4526 18.5839 16.5179 18.619 16.5881 18.6405C16.6583 18.6619 16.7321 18.6693 16.8051 18.6622C16.8782 18.6551 16.9492 18.6336 17.0139 18.5991C17.0787 18.5645 17.136 18.5175 17.1826 18.4607L19.456 15.7364C19.5545 15.6179 19.603 15.4657 19.5914 15.3121C19.5799 15.1584 19.509 15.0144 19.3939 14.912ZM18.448 9.79999C18.5247 9.79999 18.6006 9.8151 18.6715 9.84445C18.7424 9.8738 18.8068 9.91683 18.861 9.97107C18.9152 10.0253 18.9583 10.0897 18.9876 10.1606C19.017 10.2314 19.0321 10.3074 19.0321 10.3841C19.0321 10.4608 19.017 10.5367 18.9876 10.6076C18.9583 10.6785 18.9152 10.7429 18.861 10.7971C18.8068 10.8513 18.7424 10.8944 18.6715 10.9237C18.6006 10.9531 18.5247 10.9682 18.448 10.9682H13.552C13.3971 10.9682 13.2485 10.9066 13.139 10.7971C13.0294 10.6876 12.9679 10.539 12.9679 10.3841C12.9679 10.2292 13.0294 10.0806 13.139 9.97107C13.2485 9.86153 13.3971 9.79999 13.552 9.79999H18.448Z" fill="white"/>
</svg>
